<?xml version="1.0" encoding="utf-8"?>
<!-- Generator: Adobe Illustrator 25.4.1, SVG Export Plug-In . SVG Version: 6.00 Build 0)  -->
<svg version="1.1" xmlns="http://www.w3.org/2000/svg" xmlns:xlink="http://www.w3.org/1999/xlink" x="0px" y="0px"
	 viewBox="0 0 681.96 165.78" style="enable-background:new 0 0 681.96 165.78;" xml:space="preserve">
<style type="text/css">
	.st0{fill:#61B22F;}
	.st1{fill:#4B9F34;}
	.st2{fill:#2E8835;}
	.st3{fill:#F07F62;}
</style>
<g id="Layer_3">
</g>
<g id="Layer_2">
</g>
<g id="Layer_1">
	<g>
		<g>
			<path class="st0" d="M181.58,56.2c-1.12-0.05-10.48,0.08-14.92,5.42c-2.95,3.54-4.89,7.81-4.89,13.65v24.68
				c0,0.41,0.33,0.74,0.74,0.74h9.48c0.41,0,0.74-0.33,0.74-0.74v-23.2c0-3.39,0.86-5.98,2.58-7.78c1.72-1.8,4.07-2.7,7.04-2.7
				c2.97,0,5.33,0.9,7.08,2.7c1.75,1.8,2.62,4.39,2.62,7.78v23.2c0,0.41,0.33,0.74,0.74,0.74h9.48c0.41,0,0.74-0.33,0.74-0.74v-0.3
				c0.01-0.05,0.03-0.1,0.03-0.15V76.3c0-3.39,0.87-5.98,2.62-7.78c1.75-1.8,4.11-2.7,7.08-2.7c2.97,0,5.32,0.9,7.04,2.7
				c1.72,1.8,2.58,4.39,2.58,7.78v23.2c0,0.41,0.33,0.74,0.74,0.74h9.48c0.41,0,0.74-0.33,0.74-0.74V74.81
				c0-5.84-1.63-10.39-4.89-13.65c-3.26-3.26-7.55-4.89-12.87-4.89c-3.13,0-6.04,0.76-8.72,2.27c-2.32,1.31-4.57,4.18-5.94,6.23
				c-0.29,0.43-0.93,0.42-1.21-0.02c-1.41-2.18-4.57-4.54-6.88-5.79C189.37,57.38,185.59,56.28,181.58,56.2z"/>
			<path class="st0" d="M239.59,66.76c1.75-3.39,4.12-6,7.12-7.82c3-1.82,6.35-2.74,10.05-2.74c3.23,0,6.06,0.65,8.49,1.96
				c1.77,0.95,3.29,2.09,4.55,3.41c0.47,0.49,1.28,0.18,1.28-0.49v0c0-2.3,1.86-4.16,4.16-4.16h6.13c0.41,0,0.74,0.33,0.74,0.74
				V99.5c0,0.41-0.33,0.74-0.74,0.74h-9.55c-0.41,0-0.74-0.33-0.74-0.74v-3.51c0-0.68-0.83-0.98-1.29-0.48
				c-1.23,1.33-2.75,2.48-4.54,3.44c-2.48,1.33-5.33,2-8.56,2c-3.65,0-6.98-0.94-9.97-2.82c-3-1.88-5.37-4.52-7.12-7.94
				c-1.75-3.41-2.62-7.34-2.62-11.77C236.97,74.03,237.85,70.15,239.59,66.76z M269.51,71.72c-1.04-1.9-2.45-3.36-4.22-4.38
				c-1.77-1.02-3.68-1.53-5.71-1.53s-3.91,0.5-5.63,1.49c-1.72,0.99-3.12,2.44-4.19,4.34c-1.07,1.9-1.6,4.16-1.6,6.77
				s0.53,4.89,1.6,6.84c1.07,1.96,2.48,3.46,4.22,4.5c1.75,1.04,3.61,1.56,5.59,1.56c2.03,0,3.94-0.51,5.71-1.53
				c1.77-1.02,3.18-2.48,4.22-4.38c1.04-1.9,1.56-4.18,1.56-6.84S270.56,73.63,269.51,71.72z"/>
			<path class="st0" d="M325.44,61.16c3.18,3.26,4.77,7.81,4.77,13.65V99.5c0,0.41-0.33,0.74-0.74,0.74H320
				c-0.41,0-0.74-0.33-0.74-0.74V76.3c0-3.44-0.86-6.09-2.58-7.94c-1.72-1.85-4.07-2.78-7.04-2.78c-3.03,0-5.41,0.93-7.16,2.78
				c-1.75,1.85-2.62,4.5-2.62,7.94v23.2c0,0.41-0.33,0.74-0.74,0.74h-9.48c-0.41,0-0.74-0.33-0.74-0.74V61.53
				c0-2.55,2.07-4.63,4.63-4.63h5.59c0.41,0,0.74,0.33,0.74,0.74v2.72c0,0.66,0.79,0.97,1.27,0.51c1.23-1.21,2.67-2.21,4.33-2.99
				c2.27-1.07,4.76-1.6,7.47-1.6C318.09,56.28,322.26,57.91,325.44,61.16z"/>
			<path class="st0" d="M362.2,58.11c1.77,0.92,3.27,2.05,4.5,3.36c0.46,0.5,1.29,0.2,1.29-0.48v0c0-2.26,1.83-4.09,4.09-4.09h6.2
				c0.41,0,0.74,0.33,0.74,0.74v42.91c0,4.02-0.81,7.6-2.42,10.76c-1.62,3.15-4.04,5.66-7.27,7.51c-3.23,1.85-7.15,2.78-11.73,2.78
				c-6.15,0-11.2-1.44-15.14-4.3c-3.71-2.7-5.91-6.34-6.58-10.9c-0.07-0.44,0.29-0.84,0.74-0.84h9.5c0.32,0,0.58,0.21,0.69,0.5
				c0.63,1.75,1.81,3.16,3.55,4.23c1.9,1.17,4.21,1.76,6.92,1.76c3.18,0,5.76-0.95,7.74-2.86c1.98-1.9,2.97-4.79,2.97-8.64v-4.63
				c0-0.68-0.83-0.98-1.29-0.48c-1.23,1.34-2.74,2.49-4.53,3.47c-2.48,1.36-5.31,2.03-8.49,2.03c-3.65,0-6.99-0.94-10.01-2.82
				c-3.03-1.88-5.41-4.52-7.16-7.94c-1.75-3.41-2.62-7.34-2.62-11.77c0-4.38,0.87-8.26,2.62-11.66c1.75-3.39,4.12-6,7.12-7.82
				c3-1.82,6.35-2.74,10.05-2.74C356.91,56.2,359.75,56.84,362.2,58.11z M366.43,71.72c-1.04-1.9-2.45-3.36-4.22-4.38
				c-1.77-1.02-3.68-1.53-5.71-1.53c-2.03,0-3.91,0.5-5.63,1.49c-1.72,0.99-3.12,2.44-4.19,4.34c-1.07,1.9-1.6,4.16-1.6,6.77
				s0.53,4.89,1.6,6.84c1.07,1.96,2.48,3.46,4.22,4.5c1.75,1.04,3.61,1.56,5.59,1.56c2.03,0,3.94-0.51,5.71-1.53
				c1.77-1.02,3.18-2.48,4.22-4.38c1.04-1.9,1.56-4.18,1.56-6.84S367.47,73.63,366.43,71.72z"/>
			<path class="st0" d="M402.29,58.23c2.07-1.19,4.41-1.84,7.02-1.94c0.41-0.02,0.76,0.33,0.76,0.74v10c0,0.41-0.33,0.74-0.74,0.74
				h-2.16c-3.44,0-6.04,0.81-7.78,2.42c-1.75,1.62-2.62,4.43-2.62,8.45V99.5c0,0.41-0.33,0.74-0.74,0.74h-9.48
				c-0.41,0-0.74-0.33-0.74-0.74V61.84c0-2.73,2.21-4.93,4.93-4.93h5.28c0.41,0,0.74,0.33,0.74,0.74v3.69c0,0.69,0.86,1,1.3,0.47
				C399.26,60.36,400.66,59.17,402.29,58.23z"/>
			<path class="st0" d="M421.49,98.16c-3.34-1.85-5.96-4.47-7.86-7.86c-1.9-3.39-2.86-7.3-2.86-11.73c0-4.43,0.98-8.34,2.93-11.73
				c1.96-3.39,4.63-6.01,8.02-7.86c3.39-1.85,7.17-2.78,11.34-2.78c4.17,0,7.95,0.93,11.34,2.78c3.39,1.85,6.06,4.47,8.02,7.86
				c1.96,3.39,2.93,7.3,2.93,11.73c0,4.43-1,8.34-3.01,11.73c-2.01,3.39-4.72,6.01-8.13,7.86c-3.42,1.85-7.24,2.78-11.46,2.78
				C428.59,100.94,424.83,100.01,421.49,98.16z M438.35,89.95c1.75-0.96,3.14-2.41,4.18-4.34c1.04-1.93,1.56-4.28,1.56-7.04
				c0-4.12-1.08-7.29-3.25-9.5c-2.17-2.22-4.81-3.32-7.94-3.32s-5.75,1.11-7.86,3.32c-2.11,2.22-3.17,5.38-3.17,9.5
				c0,4.12,1.03,7.29,3.09,9.5c2.06,2.22,4.65,3.32,7.78,3.32C434.74,91.4,436.6,90.92,438.35,89.95z"/>
			<path class="st0" d="M478.28,88.02l10.08-30.61c0.1-0.3,0.38-0.51,0.7-0.51h10.06c0.51,0,0.87,0.51,0.69,0.99l-15.49,41.86
				c-0.11,0.29-0.38,0.48-0.69,0.48h-12.27c-0.31,0-0.59-0.19-0.69-0.48l-15.41-41.86c-0.18-0.48,0.18-0.99,0.69-0.99h10.14
				c0.32,0,0.6,0.2,0.7,0.51l10.08,30.61C477.1,88.69,478.06,88.69,478.28,88.02z"/>
			<path class="st0" d="M541.78,81.85h-30.21c-0.44,0-0.8,0.39-0.74,0.83c0.37,2.74,1.44,4.91,3.19,6.53
				c1.93,1.77,4.3,2.66,7.12,2.66c3.91,0,6.74-1.62,8.48-4.85c0.13-0.24,0.37-0.4,0.65-0.4h10.35c0.5,0,0.87,0.49,0.7,0.97
				c-1.32,3.74-3.61,6.84-6.88,9.32c-3.55,2.69-7.9,4.03-13.06,4.03c-4.17,0-7.91-0.93-11.22-2.78c-3.31-1.85-5.89-4.47-7.74-7.86
				c-1.85-3.39-2.78-7.3-2.78-11.73c0-4.48,0.91-8.42,2.74-11.81c1.82-3.39,4.38-6,7.67-7.82c3.29-1.82,7.07-2.74,11.34-2.74
				c4.12,0,7.81,0.89,11.07,2.66c3.26,1.77,5.79,4.29,7.59,7.55c1.8,3.26,2.7,7,2.7,11.22c0,1.31-0.07,2.51-0.22,3.6
				C542.47,81.59,542.15,81.85,541.78,81.85z M530.62,74.5c0.42,0,0.77-0.36,0.74-0.78c-0.21-2.46-1.21-4.45-3.01-5.99
				c-1.98-1.69-4.41-2.54-7.27-2.54c-2.71,0-4.99,0.82-6.84,2.46c-1.66,1.48-2.75,3.47-3.25,5.98c-0.09,0.45,0.27,0.87,0.73,0.87
				H530.62z"/>
			<path class="st0" d="M553.84,99.02c-2.82-1.28-5.05-3.01-6.69-5.2c-1.47-1.97-2.35-4.12-2.63-6.47c-0.05-0.43,0.3-0.81,0.74-0.81
				h9.6c0.36,0,0.65,0.26,0.73,0.61c0.32,1.4,1.1,2.58,2.36,3.53c1.43,1.09,3.22,1.64,5.36,1.64c2.09,0,3.72-0.42,4.89-1.25
				c1.17-0.83,1.76-1.9,1.76-3.21c0-1.41-0.72-2.46-2.15-3.17c-1.43-0.7-3.72-1.47-6.84-2.31c-3.23-0.78-5.88-1.59-7.94-2.42
				c-2.06-0.83-3.83-2.11-5.32-3.83s-2.23-4.04-2.23-6.96c0-2.4,0.69-4.59,2.07-6.57c1.38-1.98,3.36-3.55,5.94-4.69
				c2.58-1.15,5.62-1.72,9.11-1.72c5.16,0,9.28,1.29,12.36,3.87c2.88,2.42,4.55,5.63,5.01,9.63c0.05,0.43-0.3,0.81-0.74,0.81h-9.03
				c-0.36,0-0.65-0.27-0.72-0.63c-0.26-1.43-0.95-2.59-2.07-3.48c-1.28-1.02-2.99-1.53-5.12-1.53c-1.84,0-3.29,0.32-4.35,0.95
				c-1.42,0.85-2.15,2.62-1.7,4.21c0.27,0.97,0.96,1.74,2.06,2.31c1.46,0.76,3.73,1.53,6.81,2.31c3.13,0.78,5.71,1.59,7.74,2.42
				c2.03,0.83,3.79,2.12,5.28,3.87c1.49,1.75,2.25,4.05,2.31,6.92c0,2.5-0.69,4.75-2.07,6.73c-1.38,1.98-3.36,3.53-5.94,4.65
				c-2.58,1.12-5.59,1.68-9.03,1.68C559.84,100.94,556.66,100.3,553.84,99.02z"/>
		</g>
		<g>
			<path class="st0" d="M63.97,154.01L9.45,99.5c-3.16-3.16-3.16-8.27,0-11.43l54.51-54.51c3.16-3.16,8.27-3.16,11.43,0l54.51,54.51
				c3.16,3.16,3.16,8.27,0,11.43L75.4,154.01C72.24,157.17,67.12,157.17,63.97,154.01z"/>
			<path class="st1" d="M74.5,32.66l56.31,56.31c2.66,2.66,2.66,6.97,0,9.63l0,0c-33.76,33.76-88.49,33.76-122.25,0l0,0
				c-2.66-2.66-2.66-6.97,0-9.63l56.31-56.31C67.52,30,71.84,30,74.5,32.66z"/>
			<path class="st2" d="M74.5,11.4l56.31,56.31c2.66,2.66,2.66,6.97,0,9.63l0,0c-33.76,33.76-88.49,33.76-122.25,0l0,0
				c-2.66-2.66-2.66-6.97,0-9.63L64.86,11.4C67.52,8.74,71.84,8.74,74.5,11.4z"/>
		</g>
	</g>
	<g>
		<path class="st3" d="M585.23,66.76c1.75-3.39,4.13-6,7.16-7.82c3.02-1.82,6.39-2.74,10.09-2.74c2.82,0,5.5,0.61,8.06,1.84
			c2.55,1.23,4.59,2.86,6.1,4.89V43.57c0-0.67,0.54-1.22,1.22-1.22h8.68c0.67,0,1.22,0.54,1.22,1.22V99.4
			c0,0.46-0.38,0.84-0.84,0.84h-9.3c-0.53,0-0.97-0.43-0.97-0.97v-5.45c-1.36,2.14-3.26,3.86-5.71,5.16
			c-2.45,1.3-5.29,1.96-8.53,1.96c-3.65,0-6.99-0.94-10.01-2.82c-3.02-1.88-5.41-4.52-7.16-7.94c-1.75-3.41-2.62-7.34-2.62-11.77
			C582.6,74.03,583.48,70.15,585.23,66.76z M615.14,71.72c-1.04-1.9-2.45-3.36-4.22-4.38c-1.77-1.02-3.68-1.53-5.71-1.53
			c-2.03,0-3.91,0.5-5.63,1.49c-1.72,0.99-3.12,2.44-4.18,4.34c-1.07,1.9-1.6,4.16-1.6,6.77s0.53,4.89,1.6,6.84
			c1.07,1.96,2.48,3.46,4.22,4.5c1.75,1.04,3.61,1.56,5.59,1.56c2.03,0,3.94-0.51,5.71-1.53c1.77-1.02,3.18-2.48,4.22-4.38
			c1.04-1.9,1.56-4.18,1.56-6.84S616.19,73.63,615.14,71.72z"/>
		<path class="st3" d="M651.32,58.15c2.48-1.3,5.31-1.96,8.49-1.96c3.7,0,7.05,0.91,10.05,2.74c3,1.83,5.37,4.42,7.12,7.78
			c1.75,3.36,2.62,7.26,2.62,11.69c0,4.43-0.87,8.36-2.62,11.77c-1.75,3.42-4.12,6.06-7.12,7.94c-3,1.88-6.35,2.82-10.05,2.82
			c-3.23,0-6.06-0.64-8.49-1.92c-2.42-1.28-4.37-2.93-5.83-4.97v5.34c0,0.46-0.38,0.84-0.84,0.84h-9.14c-0.53,0-0.97-0.43-0.97-0.97
			v-55.7c0-0.67,0.54-1.22,1.22-1.22h8.52c0.67,0,1.22,0.54,1.22,1.22v19.67C646.9,61.15,648.84,59.46,651.32,58.15z M666.81,71.65
			c-1.07-1.9-2.48-3.35-4.22-4.34c-1.75-0.99-3.64-1.49-5.67-1.49c-1.98,0-3.85,0.51-5.59,1.53c-1.75,1.02-3.16,2.49-4.22,4.42
			c-1.07,1.93-1.6,4.2-1.6,6.81c0,2.61,0.53,4.88,1.6,6.8c1.07,1.93,2.48,3.4,4.22,4.42c1.75,1.02,3.61,1.53,5.59,1.53
			c2.03,0,3.92-0.52,5.67-1.56c1.75-1.04,3.15-2.53,4.22-4.46c1.07-1.93,1.6-4.22,1.6-6.88C668.41,75.81,667.88,73.55,666.81,71.65z
			"/>
	</g>
</g>
</svg>
