<svg xmlns="http://www.w3.org/2000/svg" id="a" viewBox="445.54 1023.04 655.67 90.45"><defs><style>.b{fill:#00c900;}.c{fill:#00932d;}.d{fill:#f26666;}</style></defs><g><path class="c" d="M492.48,1113.49c-8.05,0-15.5-3.82-19.92-10.21l-22.61-32.71c-5.16-7.48-5.84-17.09-1.76-25.09,3.72-7.34,10.4-13.34,19.3-17.35,7.4-3.33,16.04-5.09,25-5.09,7,0,13.76,1.07,20.07,3.19,1.49,.48,3.1,1.1,4.93,1.9,.86,.4,1.7,.81,2.5,1.22,6.05,3.13,10.86,7.18,14.28,12.04,1.01,1.43,1.83,2.77,2.5,4.1,.18,.35,.35,.73,.51,1.1,3.49,7.87,2.63,16.82-2.29,23.97l-1.16,1.68-9.28-13.44c.56-2.27,.28-4.64-.79-6.72-.16-.34-.26-.54-.41-.75-1.05-1.94-2.79-3.96-4.96-5.73-4.45-3.63-10.8-6.25-17.88-7.36-2.36-.38-4.88-.59-7.47-.64h-.56c-14.34,0-26.92,5.82-31.31,14.48-1.68,3.34-1.4,7.05,.78,10.18l22.59,32.73c1.72,2.45,4.68,3.91,7.94,3.91s6.23-1.46,7.9-3.91l1.82-2.63,8.78,12.73c-4.48,5.26-11.34,8.38-18.5,8.38Z"/><path class="c" d="M594.65,1113.49c-8.05,0-15.49-3.81-19.9-10.19l-22.61-32.73c-4.29-6.22-5.52-14.07-3.36-21.16,5.66,.73,10.68,2.65,13.69,5.22-.46,2.31-.06,4.7,1.15,6.8,.03,.09,.17,.32,.33,.57l.13,.21,22.65,32.79c1.69,2.45,4.65,3.91,7.92,3.91s6.23-1.47,7.92-3.93l22.61-32.71c2.18-3.15,2.46-6.86,.78-10.18-4.15-8.17-15.9-13.93-29.35-14.44-3.1-5.17-7.44-9.87-12.64-13.74,3.51-.57,7.16-.87,10.68-.87,8.93,0,17.57,1.76,25,5.09,8.88,4,15.56,10,19.3,17.35,4.07,8.01,3.39,17.62-1.78,25.09l-22.61,32.73c-4.41,6.38-11.85,10.19-19.9,10.19Z"/><path class="c" d="M575.65,1058.81c.54-2.24,.27-4.6-.77-6.69,0-.01-.07-.16-.23-.43-1.22-2.25-2.91-4.24-5.15-6.07-4.48-3.64-10.84-6.26-17.9-7.36-1.96-.32-4-.52-6.07-.6-3.1-5.16-7.44-9.87-12.67-13.75,3.51-.58,7.1-.87,10.71-.87,7.02,0,13.78,1.07,20.09,3.19,1.63,.54,3.25,1.16,4.93,1.9,.83,.36,1.66,.79,2.48,1.22,6.06,3.13,10.89,7.19,14.33,12.05,.97,1.37,1.77,2.7,2.46,4.07,.2,.4,.38,.75,.53,1.13,3.48,7.9,2.61,16.85-2.31,23.95l-1.15,1.67-9.28-13.41Z"/><path class="c" d="M543.56,1113.49c-8.05,0-15.49-3.81-19.9-10.19l-22.61-32.75c-4.29-6.2-5.52-14.04-3.36-21.14,5.66,.73,10.68,2.65,13.69,5.22-.46,2.29-.06,4.68,1.15,6.8,.09,.19,.29,.53,.51,.85l22.61,32.73c1.69,2.45,4.65,3.91,7.91,3.91s6.22-1.46,7.91-3.9l1.83-2.64,8.78,12.73c-4.48,5.26-11.35,8.38-18.52,8.38Z"/></g><g><path class="b" d="M674.67,1050.5c-.95-.04-8.91,.07-12.68,4.61-2.51,3.01-4.16,6.64-4.16,11.6v20.98c0,.35,.28,.63,.63,.63h8.06c.35,0,.63-.28,.63-.63v-19.72c0-2.88,.73-5.08,2.19-6.61,1.46-1.53,3.46-2.29,5.98-2.29s4.53,.76,6.02,2.29c1.49,1.53,2.23,3.73,2.23,6.61v19.72c0,.35,.28,.63,.63,.63h8.05c.35,0,.63-.28,.63-.63v-.25s.03-.08,.03-.13v-19.72c0-2.88,.74-5.08,2.23-6.61,1.49-1.53,3.49-2.29,6.02-2.29s4.52,.76,5.98,2.29,2.19,3.73,2.19,6.61v19.72c0,.35,.28,.63,.63,.63h8.06c.35,0,.63-.28,.63-.63v-20.98c0-4.96-1.39-8.83-4.16-11.6s-6.42-4.16-10.94-4.16c-2.66,0-5.13,.65-7.41,1.93-1.97,1.11-3.88,3.55-5.05,5.29-.25,.37-.79,.36-1.03-.02-1.2-1.85-3.88-3.86-5.85-4.92-2.92-1.34-6.13-2.28-9.54-2.35Z"/><path class="b" d="M723.97,1059.48c1.49-2.88,3.5-5.1,6.05-6.65s5.4-2.33,8.54-2.33c2.75,0,5.15,.55,7.22,1.67,1.5,.81,2.8,1.78,3.87,2.9,.4,.42,1.09,.15,1.09-.42h0c0-1.95,1.58-3.54,3.54-3.54h5.21c.35,0,.63,.28,.63,.63v35.58c0,.35-.28,.63-.63,.63h-8.12c-.35,0-.63-.28-.63-.63v-2.98c0-.58-.71-.83-1.1-.41-1.05,1.13-2.34,2.11-3.86,2.92-2.11,1.13-4.53,1.7-7.28,1.7-3.1,0-5.93-.8-8.47-2.4-2.55-1.6-4.56-3.84-6.05-6.75-1.49-2.9-2.23-6.24-2.23-10,0-3.75,.74-7.05,2.22-9.93Zm25.43,4.22c-.88-1.61-2.08-2.86-3.59-3.72-1.5-.87-3.13-1.3-4.85-1.3s-3.32,.42-4.78,1.27c-1.46,.84-2.65,2.07-3.56,3.69-.91,1.61-1.36,3.54-1.36,5.75s.45,4.16,1.36,5.81c.91,1.67,2.11,2.94,3.59,3.82,1.49,.88,3.07,1.33,4.75,1.33s3.35-.43,4.85-1.3,2.7-2.11,3.59-3.72,1.33-3.55,1.33-5.81-.42-4.19-1.32-5.81Z"/><path class="b" d="M796.93,1054.72c2.7,2.77,4.05,6.64,4.05,11.6v20.98c0,.35-.28,.63-.63,.63h-8.06c-.35,0-.63-.28-.63-.63v-19.72c0-2.92-.73-5.18-2.19-6.75s-3.46-2.36-5.98-2.36-4.6,.79-6.09,2.36-2.23,3.82-2.23,6.75v19.72c0,.35-.28,.63-.63,.63h-8.06c-.35,0-.63-.28-.63-.63v-32.27c0-2.17,1.76-3.93,3.93-3.93h4.75c.35,0,.63,.28,.63,.63v2.31c0,.56,.67,.82,1.08,.43,1.05-1.03,2.27-1.88,3.68-2.54,1.93-.91,4.05-1.36,6.35-1.36,4.39,0,7.94,1.39,10.64,4.16Z"/><path class="b" d="M828.18,1052.12c1.5,.78,2.78,1.74,3.82,2.86,.39,.42,1.1,.17,1.1-.41h0c0-1.92,1.56-3.48,3.48-3.48h5.27c.35,0,.63,.28,.63,.63v36.47c0,3.42-.69,6.46-2.06,9.14-1.38,2.68-3.43,4.81-6.18,6.38-2.75,1.57-6.08,2.36-9.97,2.36-5.23,0-9.52-1.22-12.87-3.65-3.15-2.29-5.02-5.39-5.59-9.26-.06-.37,.25-.71,.63-.71h8.07c.27,0,.49,.18,.59,.42,.54,1.49,1.54,2.69,3.02,3.6,1.61,.99,3.58,1.5,5.88,1.5,2.7,0,4.9-.81,6.58-2.43,1.68-1.61,2.52-4.07,2.52-7.34v-3.93c0-.58-.71-.83-1.1-.41-1.05,1.14-2.33,2.12-3.85,2.95-2.11,1.16-4.51,1.73-7.22,1.73-3.1,0-5.94-.8-8.51-2.4-2.58-1.6-4.6-3.84-6.09-6.75-1.49-2.9-2.23-6.24-2.23-10s.74-7.02,2.23-9.91c1.49-2.88,3.5-5.1,6.05-6.65s5.4-2.33,8.54-2.33c2.75,0,5.16,.55,7.24,1.63Zm3.6,11.57c-.88-1.61-2.08-2.86-3.59-3.72s-3.13-1.3-4.85-1.3-3.32,.42-4.78,1.27-2.65,2.07-3.56,3.69c-.91,1.61-1.36,3.54-1.36,5.75s.45,4.16,1.36,5.81c.91,1.67,2.11,2.94,3.59,3.82,1.49,.88,3.07,1.33,4.75,1.33s3.35-.43,4.85-1.3,2.7-2.11,3.59-3.72c.88-1.61,1.33-3.55,1.33-5.81s-.43-4.19-1.32-5.81Z"/><path class="b" d="M862.25,1052.23c1.76-1.01,3.75-1.56,5.97-1.65,.35-.02,.65,.28,.65,.63v8.5c0,.35-.28,.63-.63,.63h-1.84c-2.92,0-5.13,.69-6.61,2.06-1.49,1.38-2.23,3.76-2.23,7.18v17.72c0,.35-.28,.63-.63,.63h-8.06c-.35,0-.63-.28-.63-.63v-32c0-2.32,1.88-4.19,4.19-4.19h4.49c.35,0,.63,.28,.63,.63v3.14c0,.59,.73,.85,1.1,.4,1.02-1.23,2.21-2.24,3.6-3.04Z"/><path class="b" d="M878.57,1086.16c-2.84-1.57-5.07-3.8-6.68-6.68-1.61-2.88-2.43-6.2-2.43-9.97s.83-7.09,2.49-9.97c1.67-2.88,3.93-5.11,6.82-6.68,2.88-1.57,6.09-2.36,9.64-2.36s6.76,.79,9.64,2.36c2.88,1.57,5.15,3.8,6.82,6.68,1.67,2.88,2.49,6.2,2.49,9.97s-.85,7.09-2.56,9.97c-1.71,2.88-4.01,5.11-6.91,6.68-2.91,1.57-6.15,2.36-9.74,2.36s-6.73-.79-9.57-2.36Zm14.33-6.98c1.49-.82,2.67-2.05,3.55-3.69,.88-1.64,1.33-3.64,1.33-5.98,0-3.5-.92-6.2-2.76-8.07-1.84-1.89-4.09-2.82-6.75-2.82s-4.89,.94-6.68,2.82c-1.79,1.89-2.69,4.57-2.69,8.07s.88,6.2,2.63,8.07c1.75,1.89,3.95,2.82,6.61,2.82,1.7,0,3.28-.4,4.77-1.22Z"/><path class="b" d="M926.83,1077.54l8.57-26.01c.08-.25,.32-.43,.59-.43h8.55c.43,0,.74,.43,.59,.84l-13.16,35.58c-.09,.25-.32,.41-.59,.41h-10.43c-.26,0-.49-.16-.59-.41l-13.1-35.58c-.15-.41,.15-.84,.59-.84h8.62c.27,0,.51,.17,.59,.43l8.57,26.01c.2,.58,1,.58,1.2,0Z"/><path class="b" d="M980.8,1072.3h-25.67c-.37,0-.68,.33-.63,.71,.31,2.33,1.22,4.17,2.71,5.55,1.64,1.5,3.65,2.26,6.05,2.26,3.32,0,5.73-1.38,7.21-4.12,.11-.2,.31-.34,.55-.34h8.8c.42,0,.74,.42,.59,.82-1.12,3.18-3.07,5.81-5.85,7.92-3.02,2.29-6.71,3.43-11.1,3.43-3.54,0-6.72-.79-9.54-2.36s-5.01-3.8-6.58-6.68c-1.57-2.88-2.36-6.2-2.36-9.97s.77-7.16,2.33-10.04c1.55-2.88,3.72-5.1,6.52-6.65s6.01-2.33,9.64-2.33,6.64,.76,9.41,2.26,4.92,3.65,6.45,6.42c1.53,2.77,2.29,5.95,2.29,9.54,0,1.11-.06,2.13-.19,3.06-.05,.31-.32,.53-.64,.53Zm-9.49-6.25c.36,0,.65-.31,.63-.66-.18-2.09-1.03-3.78-2.56-5.09-1.68-1.44-3.75-2.16-6.18-2.16-2.3,0-4.24,.7-5.81,2.09-1.41,1.26-2.34,2.95-2.76,5.08-.08,.38,.23,.74,.62,.74h16.06Z"/><path class="b" d="M991.05,1086.89c-2.4-1.09-4.29-2.56-5.69-4.42-1.25-1.67-2-3.5-2.24-5.5-.04-.37,.25-.69,.63-.69h8.16c.31,0,.55,.22,.62,.52,.27,1.19,.93,2.19,2.01,3,1.22,.93,2.74,1.39,4.56,1.39s3.16-.36,4.16-1.06,1.5-1.61,1.5-2.73c0-1.2-.61-2.09-1.83-2.69-1.22-.59-3.16-1.25-5.81-1.96-2.75-.66-5-1.35-6.75-2.06s-3.26-1.79-4.52-3.26-1.9-3.43-1.9-5.92c0-2.04,.59-3.9,1.76-5.58s2.86-3.02,5.05-3.99c2.19-.98,4.78-1.46,7.74-1.46,4.39,0,7.89,1.1,10.5,3.29,2.45,2.06,3.87,4.78,4.26,8.18,.04,.37-.25,.69-.63,.69h-7.67c-.31,0-.55-.23-.61-.54-.22-1.22-.81-2.2-1.76-2.96-1.09-.87-2.54-1.3-4.35-1.3-1.56,0-2.8,.27-3.7,.81-1.21,.72-1.83,2.23-1.44,3.58,.23,.82,.82,1.48,1.75,1.96,1.24,.65,3.17,1.3,5.79,1.96,2.66,.66,4.85,1.35,6.58,2.06s3.22,1.8,4.49,3.29c1.27,1.49,1.91,3.44,1.96,5.88,0,2.12-.59,4.04-1.76,5.72s-2.86,3-5.05,3.95c-2.19,.95-4.75,1.43-7.67,1.43-3.03,.03-5.73-.52-8.12-1.61Z"/></g><g><path class="d" d="M1020.99,1058.46c1.49-2.88,3.51-5.1,6.09-6.65,2.57-1.55,5.43-2.33,8.58-2.33,2.4,0,4.67,.52,6.85,1.56,2.17,1.05,3.9,2.43,5.18,4.16v-16.45c0-.57,.46-1.04,1.04-1.04h7.38c.57,0,1.04,.46,1.04,1.04v47.45c0,.39-.32,.71-.71,.71h-7.9c-.45,0-.82-.37-.82-.82v-4.63c-1.16,1.82-2.77,3.28-4.85,4.39-2.08,1.1-4.5,1.67-7.25,1.67-3.1,0-5.94-.8-8.51-2.4-2.57-1.6-4.6-3.84-6.09-6.75-1.49-2.9-2.23-6.24-2.23-10,0-3.72,.74-7.02,2.22-9.9Zm25.43,4.22c-.88-1.61-2.08-2.86-3.59-3.72s-3.13-1.3-4.85-1.3-3.32,.42-4.78,1.27-2.65,2.07-3.55,3.69c-.91,1.61-1.36,3.54-1.36,5.75s.45,4.16,1.36,5.81c.91,1.67,2.11,2.94,3.59,3.82,1.49,.88,3.07,1.33,4.75,1.33s3.35-.43,4.85-1.3,2.7-2.11,3.59-3.72,1.33-3.55,1.33-5.81-.43-4.2-1.33-5.81Z"/><path class="d" d="M1077.17,1051.14c2.11-1.1,4.51-1.67,7.22-1.67,3.14,0,5.99,.77,8.54,2.33,2.55,1.56,4.56,3.76,6.05,6.61,1.49,2.86,2.23,6.17,2.23,9.94s-.74,7.11-2.23,10c-1.49,2.91-3.5,5.15-6.05,6.75-2.55,1.6-5.4,2.4-8.54,2.4-2.75,0-5.15-.54-7.22-1.63-2.06-1.09-3.71-2.49-4.95-4.22v4.54c0,.39-.32,.71-.71,.71h-7.77c-.45,0-.82-.37-.82-.82v-47.32c0-.57,.46-1.04,1.04-1.04h7.24c.57,0,1.04,.46,1.04,1.04v16.72c1.19-1.78,2.84-3.21,4.95-4.33Zm13.16,11.47c-.91-1.61-2.11-2.85-3.59-3.69-1.49-.84-3.09-1.27-4.82-1.27s-3.27,.43-4.75,1.3c-1.49,.87-2.69,2.12-3.59,3.76-.91,1.64-1.36,3.57-1.36,5.79s.45,4.15,1.36,5.78c.91,1.64,2.11,2.89,3.59,3.76,1.49,.87,3.07,1.3,4.75,1.3s3.33-.44,4.82-1.33,2.68-2.15,3.59-3.79,1.36-3.59,1.36-5.85-.45-4.15-1.36-5.76Z"/></g></svg>